<?xml version="1.0" standalone="no"?>
<!DOCTYPE svg PUBLIC "-//W3C//DTD SVG 20010904//EN"
 "http://www.w3.org/TR/2001/REC-SVG-20010904/DTD/svg10.dtd">
<svg version="1.0" xmlns="http://www.w3.org/2000/svg"
 width="1172.000000pt" height="1172.000000pt" viewBox="0 0 1172.000000 1172.000000"
 preserveAspectRatio="xMidYMid meet">
<metadata>
Created by potrace 1.14, written by Peter Selinger 2001-2017
</metadata>
<g transform="translate(0.000000,1172.000000) scale(0.100000,-0.100000)"
fill="#000000" stroke="none">
<path d="M5579 11706 c-2 -2 -56 -7 -119 -10 -63 -4 -130 -9 -150 -11 -56 -7
-212 -25 -252 -30 -97 -12 -124 -16 -138 -20 -8 -2 -31 -7 -50 -10 -173 -28
-367 -71 -565 -125 -710 -195 -1382 -528 -1983 -983 -97 -73 -128 -98 -156
-122 -6 -5 -38 -32 -71 -60 -220 -182 -451 -412 -694 -690 -15 -16 -53 -64
-86 -105 -33 -41 -62 -77 -65 -80 -41 -37 -317 -441 -430 -630 -83 -138 -275
-515 -335 -660 -89 -213 -125 -306 -140 -360 -2 -8 -22 -67 -44 -130 -21 -63
-46 -140 -54 -170 -43 -151 -84 -309 -93 -360 -3 -14 -7 -33 -10 -42 -3 -10
-7 -30 -10 -45 -2 -16 -11 -62 -19 -103 -20 -102 -42 -234 -50 -299 -4 -30 -8
-61 -10 -70 -1 -9 -6 -50 -10 -91 -4 -41 -9 -88 -11 -105 -25 -252 -25 -833 1
-1080 1 -16 6 -57 9 -90 3 -33 11 -91 16 -130 6 -38 12 -86 14 -105 17 -129
89 -480 130 -630 62 -228 159 -524 211 -645 7 -16 29 -70 50 -120 169 -408
407 -830 668 -1185 65 -88 199 -261 222 -286 5 -6 55 -63 110 -127 188 -219
525 -540 765 -728 187 -147 459 -339 479 -339 6 0 11 -3 11 -8 0 -4 9 -12 20
-17 10 -6 74 -43 142 -84 147 -89 480 -260 633 -326 61 -25 124 -53 140 -60
82 -37 349 -131 510 -180 116 -35 365 -101 415 -110 14 -2 69 -14 123 -25 54
-11 126 -24 160 -30 34 -5 73 -12 87 -15 14 -2 43 -7 65 -10 22 -2 58 -7 80
-10 22 -3 56 -8 75 -10 19 -2 62 -6 95 -10 127 -13 154 -15 285 -22 229 -12
660 -6 795 11 17 2 66 7 110 11 44 3 107 10 140 15 33 5 83 12 110 15 48 6 68
9 125 19 14 3 41 7 60 10 293 44 790 186 1140 326 226 90 579 259 698 334 23
14 44 26 46 26 8 0 169 99 298 183 321 209 648 475 928 757 177 178 242 251
430 477 10 12 58 75 107 140 48 65 91 120 94 123 12 11 219 330 272 420 99
171 117 203 207 385 313 635 510 1316 576 2000 4 39 8 84 10 100 9 81 18 350
18 515 -1 261 -15 492 -44 710 -5 36 -12 92 -16 125 -3 33 -8 63 -10 66 -2 3
-8 34 -14 70 -13 82 -18 108 -37 199 -8 41 -17 86 -19 99 -3 13 -20 85 -40
160 -179 701 -485 1357 -913 1956 -63 88 -117 162 -120 165 -3 3 -42 50 -86
105 -355 443 -802 853 -1295 1186 -52 35 -103 68 -112 74 -10 5 -55 33 -100
61 -194 120 -520 289 -738 382 -114 48 -249 102 -270 108 -8 2 -87 29 -175 59
-158 55 -206 69 -420 125 -134 35 -419 95 -495 104 -19 3 -48 7 -65 10 -16 3
-68 10 -115 16 -47 6 -98 12 -115 15 -16 2 -73 7 -125 11 -52 3 -104 8 -115
11 -23 6 -690 14 -696 9z"/>
</g>
</svg>
